<?xml version="1.0" encoding="UTF-8"?>
<svg width="88px" height="87px" viewBox="0 0 88 87" version="1.1" xmlns="http://www.w3.org/2000/svg" xmlns:xlink="http://www.w3.org/1999/xlink">
    <!-- Generator: Sketch 55.2 (78181) - https://sketchapp.com -->
    <title>🌁 Micro</title>
    <desc>Created with Sketch.</desc>
    <defs>
        <linearGradient x1="6.33619369%" y1="12.1036464%" x2="47.6160294%" y2="81.0559259%" id="linearGradient-1">
            <stop stop-color="#1A2542" stop-opacity="0.5" offset="0%"></stop>
            <stop stop-color="#1A2542" stop-opacity="0" offset="100%"></stop>
        </linearGradient>
    </defs>
    <g id="Flujo-A" stroke="none" stroke-width="1" fill="none" fill-rule="evenodd">
        <g id="COC-01-04-00-01" transform="translate(-600.000000, -141.000000)">
            <g id="Templates/Modal/Alert" transform="translate(0.000000, -1.000000)">
                <g id="Component/Half-Modal/Banner/Input" transform="translate(330.000000, 72.000000)">
                    <g id="Alerts/Error" transform="translate(245.000000, 41.000000)">
                        <g id="Alert" transform="translate(24.916667, 29.466667)">
                            <path d="M22.1195,85.9126668 L94.3713333,85.9126668 C95.7886227,85.9126668 97.0989686,85.1589927 97.810683,83.9333615 C98.5223975,82.7077303 98.527852,81.1959015 97.825,79.9651667 L61.7023333,16.6833333 C60.9949196,15.4429112 59.6766307,14.6771287 58.2486667,14.6771287 C56.8207026,14.6771287 55.5024137,15.4429112 54.795,16.6833333 L18.6658333,79.9651667 C17.9629813,81.1959015 17.9684359,82.7077303 18.6801503,83.9333615 C19.3918648,85.1589927 20.7022106,85.9126668 22.1195,85.9126668 Z" id="Path" fill="url(#linearGradient-1)" fill-rule="nonzero"></path>
                            <path d="M4.09933333,71.2443333 L76.3511667,71.2443333 C77.7685618,71.2443333 79.0786374,70.4892407 79.7902111,69.2634055 C80.5017848,68.0375702 80.507355,66.525712 79.8048333,65.2946667 L43.68,2.00633333 C42.9725863,0.765911161 41.6542974,0.000128708666 40.2263333,0.000128708666 C38.7983693,0.000128708666 37.4800804,0.765911161 36.7726667,2.00633333 L0.65,65.2946667 C-0.0521400993,66.5250402 -0.0469857792,68.0359797 0.663532312,69.2615342 C1.3740504,70.4870886 2.68271215,71.2423167 4.09933333,71.2443333 L4.09933333,71.2443333 Z" id="Path" fill="#DA3951" fill-rule="nonzero"></path>
                            <path d="M40.2241667,50.895 C39.3922932,50.895 38.5945228,50.5643915 38.0065027,49.975965 C37.4184825,49.3875385 37.0884251,48.5895399 37.089,47.7576667 L37.089,21.541 C37.0590303,20.4008718 37.6501549,19.3342867 38.6328427,18.7553951 C39.6155304,18.1765036 40.8349696,18.1765036 41.8176573,18.7553951 C42.8003451,19.3342867 43.3914697,20.4008718 43.3615,21.541 L43.3615,47.7576667 C43.3615,49.490368 41.956868,50.895 40.2241667,50.895 Z" id="Path" fill="#FFFFFF" fill-rule="nonzero"></path>
                            <circle id="Oval" fill="#FFFFFF" fill-rule="nonzero" cx="40.2241667" cy="59.4381667" r="3.6595"></circle>
                        </g>
                    </g>
                </g>
            </g>
        </g>
    </g>
</svg>