<?xml version="1.0" ?><!-- Uploaded to: SVG Repo, www.svgrepo.com, Generator: SVG Repo Mixer Tools -->
<svg width="800px" height="800px" viewBox="0 0 2050 2050" data-name="Layer 2" id="Layer_2" xmlns="http://www.w3.org/2000/svg"><defs><style>.cls-1{fill:#323150;}.cls-2{fill:#4d4c78;}.cls-3{fill:#46a1f8;}.cls-4{fill:#67baeb;}.cls-5{fill:#c8c2e9;}.cls-6{fill:#64639c;}</style></defs><title/><path class="cls-1" d="M1211.2,1712.7V1625h98.5v174.7a119,119,0,0,1-119.1,119H466.3a119,119,0,0,1-114.1-84.8h737.9A121.2,121.2,0,0,0,1211.2,1712.7Z"/><path class="cls-2" d="M347.2,1625h864v87.7a121.2,121.2,0,0,1-121.1,121.2H352.2a120.9,120.9,0,0,1-5-34.2Z"/><path class="cls-1" d="M1211.2,228.9a120.8,120.8,0,0,0-49.5-97.6h28.9a119,119,0,0,1,119.1,119v88.8h-98.5Z"/><path class="cls-2" d="M1211.2,228.9V339.1h-864V250.3a119,119,0,0,1,119.1-119h695.4A120.8,120.8,0,0,1,1211.2,228.9Z"/><rect class="cls-3" height="1285.9" width="98.5" x="1211.2" y="339.1"/><rect class="cls-4" height="1285.9" width="864" x="347.2" y="339.1"/><circle class="cls-1" cx="844.3" cy="1787.3" r="72.8"/><circle class="cls-5" cx="828.5" cy="1774.4" r="65.9"/><rect class="cls-6" height="106.96" rx="53.5" ry="53.5" transform="translate(1152.5 369.5) rotate(180)" width="260.8" x="445.9" y="131.3"/><rect class="cls-6" height="106.96" rx="53.5" ry="53.5" transform="translate(1033.6 3356.9) rotate(-180)" width="260.8" x="386.4" y="1625"/><path class="cls-2" d="M1276.7,1359.6H828.5V676h407.9a78.3,78.3,0,0,1,78.2,78.3v643.2h0A37.9,37.9,0,0,0,1276.7,1359.6Z"/><path class="cls-1" d="M884.9,1320.3V676H828.5v683.6h448.2a37.9,37.9,0,0,1,37.9,37.9v-77.2Z"/><path class="cls-2" d="M1352.5,1359.6h448.3V676H1392.9a78.4,78.4,0,0,0-78.3,78.3v643.2h0A37.9,37.9,0,0,1,1352.5,1359.6Z"/><path class="cls-1" d="M1370.2,1303.7v-605a78.6,78.6,0,0,1,2.7-20.1,78.3,78.3,0,0,0-58.3,75.7v643.2a37.9,37.9,0,0,1,37.9-37.9h448.3V1304Z"/><path class="cls-5" d="M1195.3,839H947.8a20,20,0,0,1,0-40h247.5a20,20,0,0,1,0,40Z"/><path class="cls-5" d="M1195.3,961.7H947.8a20,20,0,0,1,0-40h247.5a20,20,0,0,1,0,40Z"/><path class="cls-5" d="M1195.3,1084.4H947.8a20,20,0,0,1,0-40h247.5a20,20,0,0,1,0,40Z"/><path class="cls-5" d="M1195.3,1207.1H947.8a20,20,0,1,1,0-40h247.5a20,20,0,0,1,0,40Z"/><path class="cls-5" d="M1681.4,839H1434a20,20,0,0,1,0-40h247.4a20,20,0,0,1,0,40Z"/><path class="cls-5" d="M1681.4,961.7H1434a20,20,0,0,1,0-40h247.4a20,20,0,0,1,0,40Z"/><path class="cls-5" d="M1681.4,1084.4H1434a20,20,0,0,1,0-40h247.4a20,20,0,0,1,0,40Z"/><path class="cls-5" d="M1681.4,1207.1H1434a20,20,0,0,1,0-40h247.4a20,20,0,0,1,0,40Z"/></svg>