<?xml version="1.0" ?>
<!-- Uploaded to: SVG Repo, www.svgrepo.com, Generator: SVG Repo Mixer Tools -->
<svg width="800px" height="800px" viewBox="0 0 64 64" xmlns="http://www.w3.org/2000/svg">
<g data-name="04_Audio Book" id="_04_Audio_Book">
<path d="M53,51H11a1,1,0,0,1-1-1V5a3,3,0,0,1,3-3H51a3,3,0,0,1,3,3V50A1,1,0,0,1,53,51Z" style="fill:#0455bf"/>
<path d="M12,50V5a3,3,0,0,1,3-3H13a3,3,0,0,0-3,3V50a1,1,0,0,0,1,1h2A1,1,0,0,1,12,50Z" style="fill:#004787"/>
<path d="M31,12A13.015,13.015,0,0,0,18,25v7.5a4.5,4.5,0,0,0,9,0v-4a4.495,4.495,0,0,0-6.988-3.745,10.991,10.991,0,0,1,21.976,0A4.495,4.495,0,0,0,35,28.5v4a4.5,4.5,0,0,0,9,0V25A13.015,13.015,0,0,0,31,12Z" style="fill:#004787"/>
<path d="M32,11A13.015,13.015,0,0,0,19,24v7.5a4.5,4.5,0,0,0,9,0v-4a4.495,4.495,0,0,0-6.988-3.745,10.991,10.991,0,0,1,21.976,0A4.495,4.495,0,0,0,36,27.5v4a4.5,4.5,0,0,0,9,0V24A13.015,13.015,0,0,0,32,11Z" style="fill:#febc00"/>
<rect height="2" style="fill:#fdfeff" width="5" x="14" y="6"/>
<rect height="2" style="fill:#fdfeff" width="2" x="21" y="6"/>
<rect height="2" style="fill:#fdfeff" width="5" x="41" y="40"/>
<rect height="2" style="fill:#fdfeff" width="2" x="48" y="40"/>
<path d="M51,56H16.209a6.14,6.14,0,0,1-6.158-5.211A6.006,6.006,0,0,1,16,44H54v9A3,3,0,0,1,51,56Z" style="fill:#fdfeff"/>
<path d="M53,54H18a5.987,5.987,0,0,1-5.117-9.117A5.994,5.994,0,0,0,16,56H51a2.993,2.993,0,0,0,2.859-2.141A2.943,2.943,0,0,1,53,54Z" style="fill:#dfeaef"/>
<rect height="2" style="fill:#dfeaef" width="18" x="32" y="49"/>
<path d="M49,62a.991.991,0,0,1-.371-.071L44,60.077l-4.629,1.852A1,1,0,0,1,38,61V49H50V61a1,1,0,0,1-1,1Z" style="fill:#f74e0c"/>
<path d="M40,61V49H38V61a1,1,0,0,0,1.371.929l.834-.334A.989.989,0,0,1,40,61Z" style="fill:#e03a07"/>
</g>
</svg>