<?xml version="1.0" encoding="iso-8859-1"?>
<!-- Uploaded to: SVG Repo, www.svgrepo.com, Generator: SVG Repo Mixer Tools -->
<svg version="1.1" id="Layer_1" xmlns="http://www.w3.org/2000/svg" xmlns:xlink="http://www.w3.org/1999/xlink" 
	 viewBox="0 0 511.999 511.999" xml:space="preserve">
<path style="fill:#707070;" d="M380.796,97.761H207.677l-20.899,292.557l132.018-20.899l76.409-108.969v-148.28
	C395.205,104.213,388.754,97.761,380.796,97.761z"/>
<path style="fill:#B4B4B4;" d="M34.558,97.761c-7.958,0-14.411,6.451-14.411,14.41V369.42l187.529,20.899V97.761H34.558z"/>
<polygon style="fill:#424242;" points="348.184,260.451 348.184,144.784 207.677,144.784 186.778,233.591 207.677,322.398 
	318.796,322.398 "/>
<rect x="67.169" y="144.787" style="fill:#707070;" width="140.503" height="177.609"/>
<g>
	<polygon style="fill:#FFBA00;" points="281.345,176.119 207.677,176.119 186.778,191.793 207.677,207.467 281.345,207.467 	"/>
	<polygon style="fill:#FFBA00;" points="281.345,217.916 207.677,217.916 186.778,233.591 207.677,249.265 281.345,249.265 	"/>
	<polygon style="fill:#FFBA00;" points="281.345,259.714 207.677,259.714 186.778,275.388 207.677,291.063 281.345,291.063 	"/>
</g>
<g>
	<rect x="134.004" y="176.114" style="fill:#FDE09C;" width="73.669" height="31.348"/>
	<rect x="134.004" y="217.912" style="fill:#FDE09C;" width="73.669" height="31.348"/>
	<rect x="134.004" y="259.71" style="fill:#FDE09C;" width="73.669" height="31.348"/>
</g>
<polygon style="fill:#424242;" points="353,369.42 207.677,369.42 186.778,390.319 207.677,414.237 353,414.237 "/>
<path style="fill:#707070;" d="M0,369.42v30.407c0,7.958,6.451,14.41,14.411,14.41h193.267V369.42H0z"/>
<path d="M471.424,375.055h-33.419v-31.348h33.419c5.088,0,9.227-4.139,9.227-9.227v-49.127c0-5.088-4.139-9.227-9.227-9.227h-33.419
	l10.449-31.348h22.97c22.373,0,40.575,18.202,40.575,40.575v49.128C512,356.853,493.798,375.055,471.424,375.055z"/>
<path style="fill:#003DA8;" d="M383.625,244.778l-20.899,82.296l20.899,87.164h30.625c18.891,0,34.204-15.314,34.204-34.204V244.778
	H383.625z"/>
<path style="fill:#2F91ED;" d="M318.796,244.778v135.256c0,18.891,15.314,34.204,34.204,34.204h30.625v-169.46H318.796z"/>
</svg>